<svg width="22" height="22" viewBox="0 0 22 22" fill="none" xmlns="http://www.w3.org/2000/svg">
<path d="M1 13.8571L0.292893 13.15L0 13.4429V13.8571H1ZM13.8571 1L14.5642 0.292893C14.3767 0.105357 14.1224 0 13.8571 0C13.5919 0 13.3376 0.105357 13.15 0.292893L13.8571 1ZM21 8.14286L21.7071 8.84996C22.0976 8.45944 22.0976 7.82627 21.7071 7.43575L21 8.14286ZM8.14286 21V22H8.55707L8.84996 21.7071L8.14286 21ZM1 21H0C0 21.5523 0.447715 22 1 22L1 21ZM1.70711 14.5642L14.5642 1.70711L13.15 0.292893L0.292893 13.15L1.70711 14.5642ZM13.15 1.70711L20.2929 8.84996L21.7071 7.43575L14.5642 0.292893L13.15 1.70711ZM20.2929 7.43575L7.43575 20.2929L8.84996 21.7071L21.7071 8.84996L20.2929 7.43575ZM8.14286 20H1V22H8.14286V20ZM2 21V13.8571H0V21H2ZM8.86432 5.99282L16.0072 13.1357L17.4214 11.7215L10.2785 4.57861L8.86432 5.99282ZM11.7143 22H21.7143V20H11.7143V22Z" fill="black"/>
</svg>
