<svg width="26" height="26" viewBox="0 0 26 26" fill="none" xmlns="http://www.w3.org/2000/svg">
<path d="M13 1L13.6508 0.240743C13.2763 -0.0802478 12.7237 -0.0802478 12.3492 0.240743L13 1ZM1 11.2857L0.349209 10.5265L0 10.8258V11.2857H1ZM9.57143 25V26C10.1237 26 10.5714 25.5523 10.5714 25H9.57143ZM16.4286 25H15.4286C15.4286 25.5523 15.8763 26 16.4286 26V25ZM25 11.2857H26V10.8258L25.6508 10.5265L25 11.2857ZM2.71429 26H9.57143V24H2.71429V26ZM25.6508 10.5265L13.6508 0.240743L12.3492 1.75926L24.3492 12.045L25.6508 10.5265ZM12.3492 0.240743L0.349209 10.5265L1.65079 12.045L13.6508 1.75926L12.3492 0.240743ZM10.5714 25V19.8571H8.57143V25H10.5714ZM15.4286 19.8571V25H17.4286V19.8571H15.4286ZM16.4286 26H23.2857V24H16.4286V26ZM26 23.2857V11.2857H24V23.2857H26ZM0 11.2857V23.2857H2V11.2857H0ZM13 17.4286C14.3413 17.4286 15.4286 18.5159 15.4286 19.8571H17.4286C17.4286 17.4113 15.4458 15.4286 13 15.4286V17.4286ZM13 15.4286C10.5542 15.4286 8.57143 17.4113 8.57143 19.8571H10.5714C10.5714 18.5159 11.6587 17.4286 13 17.4286V15.4286ZM23.2857 26C24.7848 26 26 24.7848 26 23.2857H24C24 23.6802 23.6802 24 23.2857 24V26ZM2.71429 24C2.3198 24 2 23.6802 2 23.2857H0C0 24.7848 1.21523 26 2.71429 26V24Z" fill="black"/>
</svg>
