<svg width="23" height="23" viewBox="0 0 23 23" fill="none" xmlns="http://www.w3.org/2000/svg">
<g id="Icon/Outline/eye">
<path id="Mask" fill-rule="evenodd" clip-rule="evenodd" d="M11.5 12.9374C10.7075 12.9374 10.0625 12.2925 10.0625 11.4999C10.0625 10.7074 10.7075 10.0624 11.5 10.0624C12.2925 10.0624 12.9375 10.7074 12.9375 11.4999C12.9375 12.2925 12.2925 12.9374 11.5 12.9374M11.5 8.14577C9.65042 8.14577 8.14583 9.65035 8.14583 11.4999C8.14583 13.3495 9.65042 14.8541 11.5 14.8541C13.3496 14.8541 14.8542 13.3495 14.8542 11.4999C14.8542 9.65035 13.3496 8.14577 11.5 8.14577M11.7105 16.2893C7.58396 16.3851 4.892 12.8556 3.99884 11.4957C4.98209 9.95761 7.45842 6.80852 11.2898 6.71077C15.4001 6.60631 18.1074 10.1445 19.0006 11.5044C18.0183 13.0425 15.541 16.1916 11.7105 16.2893M20.9565 11.0233C20.3451 9.9576 16.968 4.61585 11.241 4.79506C5.9433 4.92922 2.86225 9.59631 2.04384 11.0233C1.87421 11.3184 1.87421 11.6816 2.04384 11.9768C2.64663 13.0281 5.90496 18.2079 11.5237 18.2079C11.6023 18.2079 11.6808 18.2069 11.7594 18.205C17.0561 18.0699 20.1381 13.4038 20.9565 11.9768C21.1252 11.6816 21.1252 11.3184 20.9565 11.0233" fill="#9A9A9A"/>
</g>
</svg>
