<svg width="23" height="23" viewBox="0 0 23 23" fill="none" xmlns="http://www.w3.org/2000/svg">
<g id="Icon/Outline/eye-off">
<path id="Mask" fill-rule="evenodd" clip-rule="evenodd" d="M11.5 12.9375C10.7075 12.9375 10.0625 12.2925 10.0625 11.5C10.0625 11.4875 10.0654 11.4752 10.0683 11.4629L10.0683 11.4629L10.0683 11.4629C10.0709 11.4517 10.0735 11.4405 10.074 11.4291L11.5709 12.926C11.5595 12.9264 11.5483 12.9291 11.5371 12.9317L11.5371 12.9317L11.5371 12.9317C11.5248 12.9346 11.5125 12.9375 11.5 12.9375ZM4.51088 3.15579C4.13617 2.78108 3.5305 2.78108 3.15579 3.15579C2.78109 3.5305 2.78109 4.13616 3.15579 4.51087L8.55121 9.90629C8.28671 10.3941 8.14583 10.9355 8.14583 11.5C8.14583 13.3496 9.65042 14.8542 11.5 14.8542C12.0645 14.8542 12.6059 14.7133 13.0937 14.4488L18.4891 19.8442C18.676 20.0311 18.9213 20.125 19.1667 20.125C19.412 20.125 19.6573 20.0311 19.8442 19.8442C20.2189 19.4695 20.2189 18.8638 19.8442 18.4891L4.51088 3.15579ZM11.7106 16.2894C7.58493 16.3852 4.89201 12.8557 3.99884 11.4958C4.4368 10.8115 5.17089 9.80912 6.18672 8.89775L4.83451 7.54458C3.37593 8.87571 2.44059 10.3305 2.04384 11.0233C1.87422 11.3185 1.87422 11.6817 2.04384 11.9769C2.64664 13.0282 5.90497 18.208 11.5237 18.208C11.6023 18.208 11.6808 18.207 11.7594 18.2051C12.8941 18.1763 13.9214 17.931 14.852 17.563L13.3378 16.0488C12.8251 16.1849 12.2856 16.275 11.7106 16.2894ZM11.241 4.79493C16.967 4.61572 20.3451 9.95747 20.9565 11.0231C21.1252 11.3183 21.1252 11.6815 20.9565 11.9767C20.5588 12.6696 19.6235 14.1243 18.1649 15.4554L16.8127 14.1023C17.8285 13.1909 18.5636 12.1885 19.0006 11.5042C18.1074 10.1443 15.402 6.60714 11.2898 6.71064C10.7148 6.72501 10.1753 6.8151 9.66163 6.95118L8.14747 5.43701C9.07897 5.06901 10.1053 4.82368 11.241 4.79493Z" fill="#9A9A9A"/>
</g>
</svg>
