<svg width="40" height="40" viewBox="0 0 40 40" fill="none" xmlns="http://www.w3.org/2000/svg">
<circle cx="20" cy="20" r="19" stroke="#FF8246" stroke-width="2"/>
<path d="M14.5455 21.2121C14.5455 21.5469 14.2741 21.8182 13.9394 21.8182C13.6047 21.8182 13.3333 21.5469 13.3333 21.2121C13.3333 20.8774 13.6047 20.6061 13.9394 20.6061C14.2741 20.6061 14.5455 20.8774 14.5455 21.2121Z" stroke="#FF8246" stroke-width="4"/>
<path d="M20.6061 21.2121C20.6061 21.5469 20.3347 21.8182 20 21.8182C19.6653 21.8182 19.3939 21.5469 19.3939 21.2121C19.3939 20.8774 19.6653 20.6061 20 20.6061C20.3347 20.6061 20.6061 20.8774 20.6061 21.2121Z" stroke="#FF8246" stroke-width="4"/>
<path d="M26.6667 21.2121C26.6667 21.5469 26.3953 21.8182 26.0606 21.8182C25.7259 21.8182 25.4546 21.5469 25.4546 21.2121C25.4546 20.8774 25.7259 20.6061 26.0606 20.6061C26.3953 20.6061 26.6667 20.8774 26.6667 21.2121Z" stroke="#FF8246" stroke-width="4"/>
</svg>
