<svg width="27" height="26" viewBox="0 0 27 26" fill="none" xmlns="http://www.w3.org/2000/svg">
<path fill-rule="evenodd" clip-rule="evenodd" d="M10.3386 1L10.1911 1.74913L9.62676 4.49027C8.72446 4.83484 7.9062 5.32345 7.16687 5.90288L4.4085 4.98058L3.66746 4.75087L3.28321 5.41257L1.38425 8.58738L1 9.24919L1.56266 9.74117L3.69662 11.5566C3.61943 12.0314 3.51994 12.5011 3.51994 12.9999C3.51994 13.4988 3.61943 13.9686 3.69662 14.4434L1.56266 16.2588L1 16.7508L1.38425 17.4125L3.28321 20.5874L3.66746 21.2508L4.4085 21.0194L7.16687 20.0971C7.9062 20.6765 8.72446 21.1651 9.62676 21.5096L10.1911 24.2508L10.3386 25H15.6753L15.8245 24.2508L16.3871 21.5096C17.2894 21.1651 18.1077 20.6765 18.847 20.0971L21.6054 21.0194L22.3464 21.2508L22.7324 20.5874L24.6297 17.4125L25.0156 16.7508L24.4512 16.2588L22.3173 14.4434C22.3962 13.9686 22.494 13.4988 22.494 12.9999C22.494 12.5011 22.3962 12.0314 22.3173 11.5566L24.4512 9.74117L25.0156 9.24919L24.6297 8.58738L22.7324 5.41257L22.3464 4.75087L21.6054 4.98058L18.847 5.90288C18.1077 5.32345 17.2894 4.83484 16.3871 4.49027L15.8245 1.74913L15.6753 1H10.3386Z" stroke="black" stroke-width="2" stroke-linecap="square" stroke-linejoin="round"/>
<path fill-rule="evenodd" clip-rule="evenodd" d="M16.438 12.9999C16.438 14.8925 14.901 16.4285 13.0072 16.4285C11.1134 16.4285 9.57637 14.8925 9.57637 12.9999C9.57637 11.1074 11.1134 9.57145 13.0072 9.57145C14.901 9.57145 16.438 11.1074 16.438 12.9999Z" stroke="black" stroke-width="2" stroke-linecap="square" stroke-linejoin="round"/>
</svg>
