<svg width="23" height="23" viewBox="0 0 23 23" fill="none" xmlns="http://www.w3.org/2000/svg">
<path fill-rule="evenodd" clip-rule="evenodd" d="M21.8466 10.3201H21.8501C22.4837 10.3201 22.9989 10.833 23.0001 11.4667C23.0093 14.5383 21.8213 17.4305 19.6547 19.6087C17.4893 21.7868 14.6051 22.9908 11.5334 23H11.5001C8.4399 23 5.56145 21.8132 3.3914 19.6546C1.2133 17.4892 0.00925304 14.605 5.30383e-05 11.5333C-0.00914696 8.46055 1.1788 5.56945 3.3454 3.39135C5.51085 1.21325 8.39505 0.00920024 11.4667 0C12.381 0.0138002 13.3125 0.1058 14.2049 0.3197C14.8213 0.4692 15.2019 1.0902 15.0524 1.70775C14.9041 2.32415 14.2796 2.70365 13.6655 2.55645C12.9514 2.38395 12.1935 2.3115 11.4736 2.3C9.01605 2.3069 6.708 3.2706 4.9761 5.01285C3.24305 6.7551 2.29315 9.0689 2.30005 11.5265C2.30695 13.984 3.27065 16.2909 5.0129 18.024C6.7494 19.7501 9.0517 20.7 11.5001 20.7H11.5265C13.9841 20.6931 16.2921 19.7294 18.024 17.9872C19.7571 16.2437 20.707 13.9311 20.7001 11.4735C20.6989 10.8387 21.2118 10.3212 21.8466 10.3201ZM7.23699 10.6868C7.68664 10.2372 8.41344 10.2372 8.86309 10.6868L11.4437 13.2674L18.6852 4.99203C19.1038 4.51708 19.8295 4.46648 20.3079 4.88508C20.7851 5.30253 20.8334 6.02933 20.4148 6.50773L12.3648 15.7077C12.1555 15.9469 11.8565 16.0884 11.538 16.0999H11.5C11.1953 16.0999 10.9032 15.9791 10.687 15.7629L7.23699 12.3129C6.78734 11.8633 6.78734 11.1365 7.23699 10.6868Z" fill="black"/>
</svg>
